<svg height="512" viewBox="0 0 512 512" width="512" xmlns="http://www.w3.org/2000/svg">
<g fill="#ffffff"><path d="m400 496a40.045 40.045 0 0 0 40-40v-400a40.045 40.045 0 0 0 -40-40h-288a40.045 40.045 0 0 0 -40 40v400a40.045 40.045 0 0 0 40 40zm-312-40v-400a24.028 24.028 0 0 1 24-24h288a24.028 24.028 0 0 1 24 24v400a24.028 24.028 0 0 1 -24 24h-288a24.028 24.028 0 0 1 -24-24z"/><path d="m112 136h288a8 8 0 0 0 8-8v-64a8 8 0 0 0 -8-8h-288a8 8 0 0 0 -8 8v64a8 8 0 0 0 8 8zm8-64h272v48h-272z"/><path d="m320 152h-48a8 8 0 0 0 -8 8v48a8 8 0 0 0 8 8h48a8 8 0 0 0 8-8v-48a8 8 0 0 0 -8-8zm-8 48h-32v-32h32z"/><path d="m400 152h-48a8 8 0 0 0 -8 8v48a8 8 0 0 0 8 8h48a8 8 0 0 0 8-8v-48a8 8 0 0 0 -8-8zm-8 48h-32v-32h32z"/><path d="m320 232h-48a8 8 0 0 0 -8 8v48a8 8 0 0 0 8 8h48a8 8 0 0 0 8-8v-48a8 8 0 0 0 -8-8zm-8 48h-32v-32h32z"/><path d="m400 232h-48a8 8 0 0 0 -8 8v48a8 8 0 0 0 8 8h48a8 8 0 0 0 8-8v-48a8 8 0 0 0 -8-8zm-8 48h-32v-32h32z"/><path d="m320 312h-48a8 8 0 0 0 -8 8v48a8 8 0 0 0 8 8h48a8 8 0 0 0 8-8v-48a8 8 0 0 0 -8-8zm-8 48h-32v-32h32z"/><path d="m240 312h-48a8 8 0 0 0 -8 8v48a8 8 0 0 0 8 8h48a8 8 0 0 0 8-8v-48a8 8 0 0 0 -8-8zm-8 48h-32v-32h32z"/><path d="m112 376h48a8 8 0 0 0 8-8v-48a8 8 0 0 0 -8-8h-48a8 8 0 0 0 -8 8v48a8 8 0 0 0 8 8zm8-48h32v32h-32z"/><path d="m240 232h-48a8 8 0 0 0 -8 8v48a8 8 0 0 0 8 8h48a8 8 0 0 0 8-8v-48a8 8 0 0 0 -8-8zm-8 48h-32v-32h32z"/><path d="m240 152h-48a8 8 0 0 0 -8 8v48a8 8 0 0 0 8 8h48a8 8 0 0 0 8-8v-48a8 8 0 0 0 -8-8zm-8 48h-32v-32h32z"/><path d="m112 216h48a8 8 0 0 0 8-8v-48a8 8 0 0 0 -8-8h-48a8 8 0 0 0 -8 8v48a8 8 0 0 0 8 8zm8-48h32v32h-32z"/><path d="m112 296h48a8 8 0 0 0 8-8v-48a8 8 0 0 0 -8-8h-48a8 8 0 0 0 -8 8v48a8 8 0 0 0 8 8zm8-48h32v32h-32z"/><path d="m320 392h-48a8 8 0 0 0 -8 8v48a8 8 0 0 0 8 8h48a8 8 0 0 0 8-8v-48a8 8 0 0 0 -8-8zm-8 48h-32v-32h32z"/><path d="m240 456a8 8 0 0 0 8-8v-48a8 8 0 0 0 -8-8h-128a8 8 0 0 0 -8 8v48a8 8 0 0 0 8 8zm-120-48h112v32h-112z"/><path d="m400 312h-48a8 8 0 0 0 -8 8v128a8 8 0 0 0 8 8h48a8 8 0 0 0 8-8v-128a8 8 0 0 0 -8-8zm-8 128h-32v-112h32z"/><circle cx="368" cy="96" r="8"/><circle cx="336" cy="96" r="8"/><circle cx="304" cy="96" r="8"/>
</g></svg>